<svg xmlns="http://www.w3.org/2000/svg" viewBox="0 0 1344 393"><path d="M196.12,39.5c41.8,0,81.1,16.28,110.66,45.84,29.56,29.56,45.84,68.86,45.84,110.66s-16.28,81.1-45.84,110.66c-29.56,29.56-68.86,45.84-110.66,45.84s-81.1-16.28-110.66-45.84c-29.56-29.56-45.84-68.86-45.84-110.66s16.28-81.1,45.84-110.66c29.56-29.56,68.86-45.84,110.66-45.84m0-40C87.59-.5-.38,87.48-.38,196s87.98,196.5,196.5,196.5,196.5-87.98,196.5-196.5S304.64-.5,196.12-.5h0Z"/><circle cx="195.62" cy="195.5" r="40"/><g><path d="M481.3,210.56h82.42c-.13,5.6-.2,10.55-.2,14.84,0,14.45,.81,24.51,2.44,30.18,1.63,5.66,4.39,9.86,8.3,12.6s8.46,4.1,13.67,4.1c7.03,0,12.76-2.47,17.19-7.42,4.42-4.95,6.64-12.7,6.64-23.24V50.4h92.77V229.11c0,36.85-9.64,64.78-28.91,83.79-19.27,19.01-46.88,28.52-82.81,28.52-19.4,0-35.29-2.22-47.66-6.64-8.98-3.25-17.87-8.11-26.66-14.55s-15.99-13.9-21.58-22.36c-5.6-8.46-9.57-18.88-11.91-31.25-2.34-12.37-3.58-31.05-3.71-56.05Z"/><path d="M763.72,333.8V50.4h140.23c34.89,0,60.61,5.08,77.15,15.23,21.48,13.15,32.23,32.36,32.23,57.62s-12.24,44.4-36.72,60.16c14.45,3.91,25.94,11.59,34.47,23.05,8.53,11.46,12.79,25.65,12.79,42.58,0,12.11-1.95,23.11-5.86,33.01-3.91,9.9-9.38,18.16-16.41,24.8-4.82,4.82-11.85,9.51-21.09,14.06-9.25,4.56-18.39,7.85-27.44,9.86-9.05,2.02-24.51,3.03-46.39,3.03h-142.97Zm89.84-219.53v50h35.16c14.32,0,24.32-2.31,29.98-6.93,5.66-4.62,8.5-10.58,8.5-17.87,0-5.6-1.66-10.51-4.98-14.75-3.32-4.23-7.71-7.13-13.18-8.69-4.04-1.17-12.63-1.76-25.78-1.76h-29.69Zm0,100.98v53.71h37.89c18.1,0,30.14-2.41,36.13-7.23,5.99-4.82,8.98-11.52,8.98-20.12s-2.93-14.97-8.79-19.53c-5.86-4.56-17.97-6.84-36.33-6.84h-37.89Z"/><path d="M1072.12,333.8V50.4h129.1c29.17,0,54.26,4.59,75.29,13.77,21.03,9.18,37.6,24.64,49.71,46.39,12.11,21.75,18.16,48.24,18.16,79.49,0,21.09-2.73,39.98-8.2,56.64-5.47,16.67-12.18,30.34-20.12,41.02-7.94,10.68-16.57,19.11-25.88,25.29-9.31,6.19-21.42,11.2-36.33,15.04-14.91,3.84-33.24,5.76-54.98,5.76h-126.76Zm90.82-70.31l23.44-.2c17.32,0,30.37-2.47,39.16-7.42,8.79-4.95,15.56-13.02,20.31-24.22,4.75-11.2,7.13-25.13,7.13-41.8,0-10.16-1.11-19.79-3.32-28.91-2.22-9.11-5.37-16.53-9.47-22.27-4.1-5.73-9.08-9.83-14.94-12.3-8.2-3.64-20.9-5.47-38.09-5.47h-24.22v142.58Z"/></g></svg>